<svg id="Capa_1" enable-background="new 0 0 512 512" height="512" viewBox="0 0 512 512" width="512" xmlns="http://www.w3.org/2000/svg"><g><path d="m399.111 78.271c0-43.159-35.112-78.271-78.27-78.271-26.245 0-50.37 12.988-64.841 34.405-14.471-21.418-38.596-34.405-64.841-34.405-43.158 0-78.27 35.112-78.27 78.271 0 10.709 2.142 21.888 6.365 33.227 1.446 3.882 5.766 5.856 9.646 4.41 3.881-1.446 5.856-5.765 4.41-9.646-3.598-9.657-5.422-19.075-5.422-27.99 0-34.888 28.383-63.271 63.27-63.271 23.601 0 45.082 12.993 56.062 33.91 1.721 3.278 5.085 5.315 8.779 5.315s7.058-2.037 8.78-5.316c10.98-20.917 32.461-33.91 56.062-33.91 34.887 0 63.27 28.383 63.27 63.271 0 29.779-20.633 64.605-59.669 100.712-28.338 26.213-58.175 45.579-68.44 51.962-14.648-9.127-74.134-47.899-106.631-94.811-2.359-3.405-7.03-4.253-10.436-1.895-3.405 2.358-4.253 7.031-1.894 10.436 36.133 52.16 101.162 93.056 113.832 100.725 3.152 1.908 7.081 1.921 10.256-.001 6.571-3.977 40.995-25.338 73.499-55.404 42.788-39.578 64.483-77.168 64.483-111.724z"/><path d="m21.235 102.485c0 11.536 9.385 20.921 20.92 20.921h28.218c11.536 0 20.92-9.385 20.92-20.921s-9.385-20.921-20.92-20.921h-28.217c-11.536 0-20.921 9.385-20.921 20.921zm20.921-5.921h28.218c3.265 0 5.92 2.656 5.92 5.921s-2.656 5.921-5.92 5.921h-28.218c-3.265 0-5.92-2.656-5.92-5.921s2.655-5.921 5.92-5.921z"/><path d="m72.603 141.054-26.516 9.651c-10.84 3.946-16.449 15.975-12.503 26.814 3.955 10.864 15.947 16.458 26.814 12.503l26.516-9.65c10.84-3.946 16.449-15.975 12.503-26.814-3.955-10.865-15.947-16.459-26.814-12.504zm9.181 25.222-26.517 9.65c-3.042 1.111-6.46-.436-7.588-3.538-1.119-3.073.462-6.468 3.539-7.588l26.516-9.651c3.099-1.127 6.478.486 7.588 3.539 1.12 3.075-.463 6.469-3.538 7.588z"/><path d="m33.584 27.451c-3.945 10.84 1.664 22.868 12.503 26.814l26.516 9.651c5.249 1.91 10.932 1.664 15.997-.699 5.064-2.361 8.906-6.554 10.817-11.805 3.945-10.84-1.664-22.868-12.503-26.814l-26.517-9.651c-10.841-3.945-22.868 1.664-26.813 12.504zm51.541 14.305c1.382 2.965.102 6.484-2.864 7.868-1.433.668-3.042.738-4.526.197l-26.517-9.651c-3.074-1.119-4.659-4.512-3.539-7.588 1.116-3.067 4.519-4.656 7.588-3.539l26.516 9.651c1.487.541 2.673 1.628 3.342 3.062z"/><path d="m490.765 102.485c0-11.536-9.385-20.921-20.92-20.921h-28.218c-11.536 0-20.92 9.385-20.92 20.921s9.385 20.921 20.92 20.921h28.218c11.536 0 20.92-9.385 20.92-20.921zm-20.92 5.921h-28.218c-3.265 0-5.92-2.656-5.92-5.921s2.656-5.921 5.92-5.921h28.218c3.265 0 5.92 2.656 5.92 5.921s-2.655 5.921-5.92 5.921z"/><path d="m439.397 141.054c-10.887-3.962-22.866 1.659-26.814 12.504-3.945 10.84 1.664 22.868 12.503 26.814l26.516 9.65c10.888 3.961 22.867-1.66 26.814-12.503 3.945-10.84-1.664-22.868-12.503-26.814zm24.924 31.335c-1.112 3.058-4.493 4.661-7.588 3.538l-26.516-9.65c-3.158-1.15-4.698-4.665-3.481-7.742 1.168-2.952 4.487-4.493 7.531-3.385l26.516 9.651c3.073 1.119 4.658 4.512 3.538 7.588z"/><path d="m451.602 14.947-26.516 9.651c-10.84 3.946-16.449 15.975-12.503 26.814 1.912 5.251 5.753 9.443 10.817 11.805 5.061 2.361 10.745 2.611 15.997.699l26.516-9.651c10.84-3.946 16.449-15.975 12.503-26.814-3.945-10.839-15.973-16.447-26.814-12.504zm9.18 25.223-26.516 9.651c-3.074 1.119-6.47-.464-7.588-3.539-1.119-3.073.462-6.468 3.539-7.588l26.515-9.651c3.068-1.114 6.472.472 7.589 3.539 1.119 3.073-.462 6.468-3.539 7.588z"/><path d="m502.109 218.676c-11.531-4.642-24.47-4.147-35.5 1.36-5.788 2.89-10.784 7.012-14.688 11.997-13.644-1.529-27.203 5.453-33.77 17.797-15.566-.552-29.828 9.63-34.01 25.238l-14.824 55.322c-1.062 3.962-3.603 7.273-7.155 9.325-1.082.626-22.288 12.869-23.712 13.691-.149.085-.277.16-.532-.035-.254-.195-.216-.339-.171-.505l6.505-24.277c6.169-23.023-7.533-46.807-30.544-53.019-9.896-2.669-20.079 3.176-22.727 13.055l-21.909 81.766c-5.011 18.698-7.551 37.996-7.551 57.357v75.663c0 4.735 3.853 8.588 8.588 8.588h83.186c4.735 0 8.588-3.853 8.588-8.588v-31.457c0-14.242 5.797-28.165 15.906-38.198l100.055-99.308c6.809-6.758 11.72-15.228 14.203-24.492l19.404-72.422c2.08-7.768-1.935-15.877-9.342-18.858zm-103.479 60.275c1.925-7.185 7.666-12.312 14.489-13.735l-12.643 47.184c-1.062 3.963-3.603 7.274-7.154 9.325-.251.146-6.877 3.971-7.28 4.204zm98.33-45.299-19.405 72.422c-1.796 6.707-5.352 12.837-10.28 17.729l-100.055 99.307c-12.926 12.83-20.339 30.634-20.339 48.845v25.045h-70.361v-69.251c0-18.051 2.369-36.042 7.041-53.475l21.908-81.766c.497-1.853 2.446-2.964 4.329-2.455 15.041 4.06 23.997 19.605 19.964 34.653l-6.505 24.277c-1.626 6.069.544 12.462 5.529 16.287s11.722 4.268 17.164 1.126l86.033-49.671c7.022-4.055 12.044-10.601 14.143-18.433l3.158-11.786c1.072-4.001-1.302-8.113-5.303-9.186-3.999-1.073-8.113 1.302-9.186 5.303l-3.158 11.786c-1.062 3.963-3.603 7.274-7.154 9.325l-7.28 4.203c13.422-50.092 12.612-47.087 12.742-47.519 2.606-7.574 7.972-11.843 14.336-13.187-.02.072-.04.143-.059.215-1.072 4.001 1.302 8.114 5.303 9.186 3.999 1.078 8.114-1.301 9.186-5.303 2.081-7.766 7.403-14.28 14.602-17.875 7.296-3.645 15.533-3.95 23.197-.866.364.15.568.627.45 1.064z"/><path d="m221.02 288.626c-2.642-9.861-12.811-15.726-22.727-13.055-23.011 6.212-36.712 29.995-30.544 53.019l6.505 24.276c.045.167.083.311-.171.506-.254.193-.383.12-.531.035-1.082-.625-22.969-13.261-23.713-13.691-3.553-2.052-6.094-5.363-7.155-9.325l-14.824-55.322c-4.182-15.608-18.443-25.785-34.009-25.236-6.329-11.898-19.619-19.387-33.772-17.8-11.944-15.249-32.381-20.527-50.187-13.357-7.407 2.981-11.423 11.089-9.341 18.859l19.405 72.422c2.483 9.265 7.394 17.734 14.203 24.492l66.221 65.727c2.938 2.917 7.688 2.9 10.606-.04 2.918-2.939 2.9-7.688-.04-10.606l-66.221-65.727c-4.928-4.892-8.483-11.022-10.28-17.729l-19.405-72.421c-.118-.438.086-.915.454-1.063 16.284-6.557 33.555 2.902 37.797 18.741l12.584 46.963c2.099 7.831 7.122 14.378 14.144 18.433l86.033 49.671c5.44 3.141 12.178 2.7 17.163-1.126 4.984-3.824 7.155-10.218 5.529-16.287l-6.505-24.277c-4.032-15.048 4.923-30.594 19.964-34.653 1.882-.507 3.832.601 4.329 2.455l21.909 81.766c4.672 17.435 7.041 35.426 7.041 53.475v69.249h-70.362v-25.045c0-18.212-7.413-36.015-20.339-48.845l-8.746-8.68c-2.94-2.919-7.689-2.901-10.606.04-2.918 2.94-2.9 7.688.04 10.606l8.746 8.68c10.108 10.033 15.906 23.956 15.906 38.198v31.457c0 4.735 3.853 8.588 8.588 8.588h83.186c4.735 0 8.588-3.853 8.588-8.588v-75.663c0-19.359-2.541-38.657-7.551-57.357zm-107.65-9.675 12.588 46.978c-.222-.128-7.385-4.264-7.28-4.204-3.552-2.051-6.093-5.362-7.154-9.325l-12.644-47.189c6.822 1.422 12.565 6.554 14.49 13.74zm-33.006 15.46c-.205-.764-12.514-46.706-12.643-47.178 6.282 1.327 11.711 5.558 14.336 13.186.131.439-.68-2.572 12.742 47.52l-7.279-4.203c-3.553-2.051-6.094-5.363-7.156-9.325z"/></g></svg>